# xmcd CD database file
#
# Track frame offsets:
#	182
#	14675
#	28862
#	42337
#	55575
#	70100
#	84550
#	100087
#	112887
#	126287
#	140612
#	154950
#	167287
#	179950
#	192550
#	205225
#	217887
#	230250
#	243287
#	256662
#	270062
#	282750
#	295325
#
# Disc length: 4135 seconds
#
# Revision: 0
# Processed by: cddbd v1.5.1PL0 Copyright (c) Steve Scherf et al.
# Submitted via: CDex 1.50
#
DISCID=46102517
DTITLE=Johnny Dodds - 1926-1928
DYEAR=1990
DGENRE=Jazz
TTITLE0=Perdido Street Blues
TTITLE1=Gate Mouth
TTITLE2=Too Tight
TTITLE3=Papa Dip
TTITLE4=Mixed Salad
TTITLE5=I Can't Say
TTITLE6=Flat Foot
TTITLE7=Mad Dog
TTITLE8=Come on and Stomp Stomp Stomp
TTITLE9=After You've Gone
TTITLE10=After You've Gone
TTITLE11=Joe Turner Blues
TTITLE12=When Erastus Played His Old Kazoo
TTITLE13=Ballin' the Jack
TTITLE14=Grandma's Ball
TTITLE15=My Baby
TTITLE16=Oriental Man
TTITLE17=Get'em Again Blues
TTITLE18=Brush Stomp
TTITLE19=My Girl
TTITLE20=Sweep 'Em Clean
TTITLE21=Lady Love
TTITLE22=Brown Bottom Bess
EXTD=YEAR: 1990
EXTT0=
EXTT1=
EXTT2=
EXTT3=
EXTT4=
EXTT5=
EXTT6=
EXTT7=
EXTT8=
EXTT9=
EXTT10=
EXTT11=
EXTT12=
EXTT13=
EXTT14=
EXTT15=
EXTT16=
EXTT17=
EXTT18=
EXTT19=
EXTT20=
EXTT21=
EXTT22=
PLAYORDER=
